PathFileType  4	(X/Y/Z) C:\Users\antoi\Documents\MyRepositories\mobilecap\ResultsAnalysis
DataRate	CameraRate	NumFrames	NumMarkers	Units	OrigDataRate	OrigDataStartFrame	OrigNumFrames
100.0	100.0	5	51	mm	100.0	230	306
Frame#	Time	r_knee			r_shank_antsup			r_ankle			r_calc			r_5meta			r_toe			L_knee			L_shank_antsup			L_ankle			L_calc			L_5meta			L_toe			r_sh2			r_sh3			r_sh4			L_sh2			L_sh3			r_thigh1			r_thigh2			r_thigh3			r_thigh4			r_thigh5			L_thigh1			L_thigh2			L_thigh3			L_thigh4			r.ASIS			r.PSIS			L.ASIS			L.PSIS			C7			R_Shoulder			L_Shoulder			R_Sternum			L_Sternum			R_humerus			R_elbow_med			R_elbow_lat			R_forearm			R_wrist_radius			R_wrist_ulna			L_humerus			L_elbow_med			L_elbow_lat			L_forearm			L_wrist_radius			L_wrist_ulna			R_HJC			L_HJC			R_HJC_reg			L_HJC_reg			
		X1	Y1	Z1	X2	Y2	Z2	X3	Y3	Z3	X4	Y4	Z4	X5	Y5	Z5	X6	Y6	Z6	X7	Y7	Z7	X8	Y8	Z8	X9	Y9	Z9	X10	Y10	Z10	X11	Y11	Z11	X12	Y12	Z12	X13	Y13	Z13	X14	Y14	Z14	X15	Y15	Z15	X16	Y16	Z16	X17	Y17	Z17	X18	Y18	Z18	X19	Y19	Z19	X20	Y20	Z20	X21	Y21	Z21	X22	Y22	Z22	X23	Y23	Z23	X24	Y24	Z24	X25	Y25	Z25	X26	Y26	Z26	X27	Y27	Z27	X28	Y28	Z28	X29	Y29	Z29	X30	Y30	Z30	X31	Y31	Z31	X32	Y32	Z32	X33	Y33	Z33	X34	Y34	Z34	X35	Y35	Z35	X36	Y36	Z36	X37	Y37	Z37	X38	Y38	Z38	X39	Y39	Z39	X40	Y40	Z40	X41	Y41	Z41	X42	Y42	Z42	X43	Y43	Z43	X44	Y44	Z44	X45	Y45	Z45	X46	Y46	Z46	X47	Y47	Z47	X48	Y48	Z48	X49	Y49	Z49	X50	Y50	Z50	X51	Y51	Z51	

230	2.29000000	-177.71843	698.65209	-316.13952	-149.28192	588.61808	-303.40620	-201.98220	314.79122	-328.69692	-230.69700	329.13191	-390.45676	-167.49508	184.90633	-299.31537	-115.82645	174.14368	-324.54143	-185.30662	733.87624	-752.74254	-136.63524	631.47681	-756.35023	-224.64141	360.74826	-793.81126	-246.74926	365.84843	-737.46924	-198.91576	228.79476	-840.09463	-139.82183	208.66122	-813.57052	-150.36638	476.28515	-307.49064	-222.44554	586.23090	-284.95001	-232.16897	476.85934	-306.37942	-215.94570	661.76136	-786.62081	-231.98233	542.66637	-813.68169	-81.87333	1005.25788	-329.33254	-76.25848	896.16710	-320.13943	-125.35112	871.13944	-282.02813	-190.97918	998.28866	-301.72998	-179.69070	883.90793	-286.10493	-127.72297	1032.58896	-718.97508	-109.78294	896.48111	-750.78132	-237.63461	1020.73705	-707.78364	-219.57569	882.86522	-738.85115	-37.18700	1141.17469	-394.30687	-204.54793	1237.97972	-432.74382	-50.33409	1172.64265	-625.39907	-215.38918	1252.03944	-548.44338	-150.83798	1666.94286	-468.22219	-112.84603	1686.63408	-379.54412	-101.81394	1707.02929	-559.85646	-11.80868	1633.63511	-447.24917	-10.95906	1633.65331	-482.73670	-91.90118	1739.21574	-312.13219	-46.42912	1781.80368	-108.55496	-89.74788	1834.58372	-145.81126	-18.88312	1946.96633	-151.81106	48.33255	2019.65227	-160.35654	34.88273	2034.00679	-130.57518	-49.08348	1766.57280	-630.84097	60.12623	1795.25389	-801.64572	11.59843	1847.17488	-783.19333	57.46332	1937.04689	-790.63532	142.44782	2039.43197	-825.56468	133.24435	2034.89025	-851.65235	-143.16390	1098.39157	-413.52889	-151.30775	1118.72111	-601.63798	-123.51629	1102.76614	-423.58232	-137.80489	1121.28430	-575.96933	
231	2.30000000	-172.12016	715.07580	-312.69242	-145.84052	603.85419	-300.35702	-205.66024	331.67755	-326.50463	-235.03587	348.64263	-387.18066	-174.12028	200.64953	-300.55175	-123.68969	188.77790	-327.58643	-180.07685	751.54216	-752.81967	-132.79747	647.28842	-751.03509	-222.89979	377.41722	-793.33323	-247.71221	384.26034	-739.25971	-198.02681	243.38705	-836.12853	-139.99393	223.99845	-807.22049	-150.25991	491.69812	-305.63022	-218.72338	603.38414	-280.73981	-231.93400	494.66292	-303.15205	-208.46602	679.85531	-788.42523	-224.95425	560.65448	-815.49698	-82.97319	1023.63885	-325.38019	-76.32025	915.31653	-315.55008	-125.23997	888.94365	-279.07726	-192.99894	1014.63814	-302.28293	-179.70940	900.66936	-284.26476	-125.93796	1046.41489	-718.09800	-110.34952	910.03337	-750.19208	-235.87562	1036.25487	-705.03718	-219.82748	898.03403	-735.26937	-36.38856	1158.93767	-391.45653	-204.76026	1253.22942	-432.08885	-49.13880	1188.60976	-626.04107	-214.90350	1266.78346	-546.30718	-148.60124	1683.22992	-466.32550	-110.83762	1701.17997	-375.48885	-99.61180	1722.75746	-559.26540	-10.99110	1649.60383	-445.25047	-8.15760	1650.35608	-480.06523	-91.54315	1751.23935	-303.20212	-55.28153	1782.78006	-94.91018	-96.02281	1837.71727	-131.07899	-22.81507	1947.74330	-132.32964	46.53355	2018.94206	-137.18687	32.05876	2032.73155	-107.30967	-49.25697	1780.62508	-635.93565	53.10929	1804.07773	-811.21130	6.67902	1857.10034	-791.52937	55.17981	1946.10725	-800.62881	143.17243	2045.00344	-837.77907	131.74346	2041.43328	-863.81559	-141.50242	1114.61668	-411.73495	-149.79631	1133.84656	-599.95111	-122.63625	1117.60939	-421.94779	-136.35710	1135.95680	-576.54553	
232	2.31000000	-169.90488	731.63586	-309.75109	-141.67004	619.40709	-299.10797	-206.58552	348.31886	-323.30516	-237.10442	366.22138	-383.59865	-175.85336	215.81480	-301.01523	-126.59265	203.73384	-330.01416	-177.73047	767.78365	-751.85476	-130.34198	662.55776	-744.76121	-219.70411	392.93836	-794.15411	-246.73246	400.06111	-740.48877	-192.78965	257.93458	-833.62905	-135.52162	239.86717	-802.36166	-148.13808	507.34990	-304.74305	-213.44934	619.87364	-276.20587	-229.33545	511.22181	-298.42538	-201.92409	696.74832	-788.69836	-217.57108	578.11953	-817.41750	-82.98779	1038.59253	-321.62169	-77.33932	930.79711	-310.92333	-126.90466	904.23983	-275.99555	-193.70886	1029.97623	-301.91154	-181.13876	916.01940	-282.92468	-122.37757	1059.70680	-716.99472	-110.33316	922.86645	-749.21187	-232.53729	1052.23967	-703.53611	-219.76417	913.58318	-731.94005	-35.05783	1176.93580	-386.55546	-204.35440	1267.30577	-432.47310	-47.66232	1203.81005	-626.64469	-213.36722	1280.53949	-544.66514	-146.64735	1700.31885	-464.58768	-109.69559	1716.21509	-371.25942	-96.33668	1737.64635	-557.45035	-10.28941	1664.04786	-442.72676	-6.53576	1665.79155	-477.53672	-91.55445	1762.52184	-294.14274	-63.13928	1781.72778	-82.42726	-101.86232	1838.83351	-116.69634	-26.45578	1946.34279	-113.08000	44.86016	2015.79275	-113.07405	29.42857	2029.07002	-83.54983	-48.90004	1793.74535	-641.21929	46.19446	1811.37749	-821.15654	1.90430	1865.57704	-800.29516	53.22385	1953.73621	-811.63433	144.42082	2048.54213	-850.48552	131.05772	2045.94758	-876.50232	-139.19976	1130.58894	-409.33146	-147.00065	1147.71681	-597.76863	-121.23872	1130.60063	-419.22287	-133.91868	1149.24714	-577.28961	
233	2.32000000	-170.72192	747.88717	-307.34318	-137.64042	635.21473	-299.83893	-205.40576	364.12834	-320.18461	-237.72189	381.06633	-380.10430	-173.39026	230.69105	-299.44317	-124.92009	219.03782	-330.09329	-178.17138	782.56802	-749.39317	-128.97131	677.15701	-738.47405	-216.11372	407.56797	-795.35198	-244.55066	413.59744	-740.92136	-185.36232	272.47014	-832.49321	-128.24621	256.15856	-800.13297	-144.43415	522.82234	-304.87967	-207.43435	635.63508	-271.95108	-224.93820	526.81306	-292.59315	-196.51189	712.11297	-787.53913	-210.53802	594.96132	-819.19721	-81.75810	1050.95032	-318.01899	-78.50287	943.22101	-306.39934	-129.64648	917.73967	-272.95899	-192.96419	1044.72944	-300.28512	-183.32828	930.47452	-282.38166	-117.91123	1073.37464	-715.54030	-109.13213	935.89506	-746.96031	-228.31972	1068.33104	-702.94701	-218.85643	929.39035	-729.76118	-33.41852	1194.25377	-380.51442	-203.35182	1280.27496	-433.08604	-45.89514	1218.47352	-626.53874	-211.39654	1293.31716	-543.72671	-144.86696	1717.58234	-462.85918	-107.61309	1731.29628	-367.38533	-93.62563	1751.80682	-556.69009	-10.23281	1676.76948	-440.99402	-5.58478	1680.23811	-475.31244	-90.92938	1773.36370	-285.81760	-69.96811	1778.85782	-71.46111	-107.23236	1837.98413	-103.12511	-29.66674	1943.02874	-94.59275	43.37868	2010.80094	-88.43559	26.89928	2023.41229	-59.40312	-48.34101	1805.69234	-646.52174	39.32915	1817.23875	-830.79599	-2.91793	1872.40004	-809.37066	51.18720	1959.55079	-823.20632	145.62519	2049.99090	-863.32393	130.70126	2048.27573	-889.38583	-136.60561	1145.82071	-406.64846	-143.28757	1160.66292	-595.32553	-119.19024	1142.53633	-415.43196	-130.96110	1161.61151	-577.25616	
234	2.33000000	-173.52235	763.26290	-305.42817	-134.88261	650.62859	-301.13861	-203.25194	378.48643	-317.41887	-237.03298	393.67471	-377.05158	-169.01285	245.10676	-295.88419	-120.50037	234.17219	-326.96522	-180.10122	796.42320	-746.03598	-128.23324	691.40239	-733.56907	-212.69812	421.19402	-794.77981	-241.38669	425.66147	-740.12627	-178.23570	286.70554	-832.42010	-120.34005	272.36172	-800.71784	-140.55724	537.48279	-305.20569	-202.49469	650.40703	-268.29915	-220.42966	541.41151	-287.27698	-193.21143	726.47039	-785.42119	-205.10138	611.05574	-820.61178	-79.76869	1061.95562	-315.03013	-79.63411	954.20777	-302.63177	-132.70937	930.22718	-270.87472	-191.08674	1059.36270	-297.85280	-185.66344	944.57596	-282.66883	-113.60951	1087.05980	-713.18405	-106.85720	949.03530	-743.61750	-224.21893	1084.00549	-702.94976	-217.09319	944.79780	-728.64806	-31.89881	1209.90297	-374.44881	-202.08529	1292.12741	-433.19591	-43.79782	1232.75477	-625.03224	-209.57972	1305.12798	-543.48883	-142.87276	1734.13791	-461.26826	-104.56401	1744.98991	-363.69717	-91.97928	1765.26373	-557.35024	-10.66187	1688.35665	-440.87172	-4.83687	1693.86967	-473.64668	-90.21678	1783.31817	-278.36457	-75.77611	1774.45807	-62.21437	-112.04343	1835.44895	-90.87578	-32.56914	1938.15643	-76.58724	41.88186	2004.37797	-63.87604	24.40094	2015.90307	-34.93648	-47.85195	1816.41841	-651.52224	32.77196	1821.54031	-839.57465	-7.85403	1877.57228	-818.59074	48.85690	1963.47081	-835.08366	146.45095	2049.44500	-875.60753	130.27215	2048.60540	-901.88421	-134.22345	1159.70290	-404.07749	-139.12924	1172.98629	-592.92547	-116.74765	1154.12448	-411.03673	-127.95094	1173.54238	-575.77407	
